HIERARCHY
ROOT Hips
{
	OFFSET 0.000000 88.474243 0.000000
	CHANNELS 6 Xposition Yposition Zposition Zrotation Yrotation Xrotation 
	JOINT Hips_Spine
	{
		OFFSET 0.000000 0.000000 0.000000
		CHANNELS 3 Zrotation Yrotation Xrotation
		JOINT Spine
		{
			OFFSET 0.005100 8.711998 -0.691000
			CHANNELS 3 Zrotation Yrotation Xrotation
			JOINT Spine1
			{
				OFFSET -0.009200 8.660301 -1.275000
				CHANNELS 3 Zrotation Yrotation Xrotation
				JOINT Spine2
				{
					OFFSET 0.006300 9.852501 -1.857000
					CHANNELS 3 Zrotation Yrotation Xrotation
					JOINT Spine2_Neck
					{
						OFFSET 0.000000 0.000000 0.000000
						CHANNELS 3 Zrotation Yrotation Xrotation
						JOINT Neck
						{
							OFFSET 0.016300 11.420799 -0.263300
							CHANNELS 3 Zrotation Yrotation Xrotation
							End Site #name: Head
							{
								OFFSET -0.019200 9.262405 2.362500
							}
						}
					}
					JOINT Spine2_LeftShoulder
					{
						OFFSET 0.000000 0.000000 0.000000
						CHANNELS 3 Zrotation Yrotation Xrotation
						JOINT LeftShoulder
						{
							OFFSET 5.616900 6.732201 -0.345700
							CHANNELS 3 Zrotation Yrotation Xrotation
							JOINT LeftArm
							{
								OFFSET 10.664888 -0.183372 -2.440700
								CHANNELS 3 Zrotation Yrotation Xrotation
								JOINT LeftForeArm
								{
									OFFSET 27.459126 0.000000 0.000000
									CHANNELS 3 Zrotation Yrotation Xrotation
									End Site #name: LeftHand
									{
										OFFSET 21.306858 0.000000 0.000000
									}
								}
							}
						}
					}
					JOINT Spine2_RightShoulder
					{
						OFFSET 0.000000 0.000000 0.000000
						CHANNELS 3 Zrotation Yrotation Xrotation
						JOINT RightShoulder
						{
							OFFSET -5.580300 6.737503 -0.344400
							CHANNELS 3 Zrotation Yrotation Xrotation
							JOINT RightArm
							{
								OFFSET -10.679335 -0.188484 -2.383900
								CHANNELS 3 Zrotation Yrotation Xrotation
								JOINT RightForeArm
								{
									OFFSET -27.503529 0.000000 0.000000
									CHANNELS 3 Zrotation Yrotation Xrotation
									End Site #name: RightHand
									{
										OFFSET -21.306808 0.000000 0.000000
									}
								}
							}
						}
					}
				}
			}
		}
	}
	JOINT Hips_LeftUpLeg
	{
		OFFSET 0.000000 0.000000 0.000000
		CHANNELS 3 Zrotation Yrotation Xrotation
		JOINT LeftUpLeg
		{
			OFFSET 6.857700 -6.739601 0.312100
			CHANNELS 3 Zrotation Yrotation Xrotation
			JOINT LeftLeg
			{
				OFFSET -0.367590 -34.731552 -4.572400
				CHANNELS 3 Zrotation Yrotation Xrotation
				End Site #name: LeftFoot
				{
					OFFSET 0.367590 -34.656704 -6.067400
				}
			}
		}
	}
	JOINT Hips_RightUpLeg
	{
		OFFSET 0.000000 0.000000 0.000000
		CHANNELS 3 Zrotation Yrotation Xrotation
		JOINT RightUpLeg
		{
			OFFSET -6.876100 -6.733299 0.301000
			CHANNELS 3 Zrotation Yrotation Xrotation
			JOINT RightLeg
			{
				OFFSET 0.347353 -34.795158 -4.515900
				CHANNELS 3 Zrotation Yrotation Xrotation
				End Site #name: RightFoot
				{
					OFFSET -0.347353 -34.589367 -6.070300
				}
			}
		}
	}
}
MOTION
Frames: 14
Frame Time: 0.041667
11.699018 1.001385 -3.888504 178.834445 51.595737 171.954029 0.000000 -0.000000 0.000000 0.178695 3.754594 9.821333 0.155897 0.702129 1.791134 0.000000 0.000000 0.000000 0.212686 0.512767 1.078230 -0.928287 -1.497685 0.225476 0.142608 0.709827 2.018979 -12.812853 3.009286 0.826238 -60.186111 1.224678 17.126076 -0.252661 -25.896863 0.622733 0.100269 1.025086 1.764202 14.989117 13.881257 3.595837 42.511938 43.027547 -18.250560 179.233132 52.594203 179.792804 0.000000 -0.000000 -0.000000 -3.370486 4.933434 -4.456413 -5.385722 -21.582418 22.970350 -0.000000 -0.000000 0.000000 -0.443117 -9.126507 -16.844070 -8.364152 -9.862421 28.198155 
11.913435 1.063679 -4.140989 179.493270 50.136551 172.409486 0.000000 -0.000000 0.000000 0.440874 3.625975 9.963380 0.215371 0.652737 1.829847 0.000000 0.000000 0.000000 0.280119 0.442607 1.137024 -0.818259 -1.497307 0.398408 0.199739 0.622129 2.061966 -12.704839 3.027797 0.811297 -60.736427 1.443371 16.865678 -0.253117 -26.024797 0.632696 0.153307 0.927442 1.791251 14.914138 14.007175 3.591449 42.705606 42.725653 -17.901620 179.225307 52.718989 179.788513 0.000000 -0.000000 -0.000000 -2.082290 5.407128 -5.976749 -5.470181 -21.131949 26.327152 -0.000000 -0.000000 0.000000 -0.005227 -9.502570 -16.372901 -8.241463 -9.868077 27.941669 
12.089371 1.128542 -4.447329 -179.970287 49.102279 172.747705 0.000000 -0.000000 0.000000 0.685788 3.462008 10.095678 0.280780 0.595027 1.873244 0.000000 0.000000 0.000000 0.339146 0.367486 1.200485 -0.716729 -1.474982 0.633105 0.257433 0.529513 2.108993 -12.591585 3.031581 0.799427 -61.236767 1.669123 16.659111 -0.253913 -26.147285 0.643252 0.209451 0.821023 1.823720 14.851190 14.133885 3.590923 42.881631 42.454788 -17.599853 179.214766 52.846806 179.779915 0.000000 -0.000000 -0.000000 -1.038511 5.927500 -7.401117 -5.492929 -20.659805 29.183888 -0.000000 -0.000000 0.000000 0.380571 -9.806423 -15.899700 -8.152922 -9.861130 27.618282 
12.225776 1.199324 -4.801770 -179.509374 48.328898 173.020179 0.000000 -0.000000 0.000000 0.920323 3.262426 10.209309 0.349886 0.535405 1.918636 0.000000 0.000000 0.000000 0.396798 0.305632 1.255212 -0.617125 -1.443413 0.853077 0.315735 0.438618 2.153410 -12.487728 3.035256 0.788387 -61.662514 1.879610 16.456169 -0.254740 -26.274765 0.650825 0.268616 0.713011 1.853230 14.783765 14.231747 3.586540 43.056188 42.218877 -17.305033 179.208987 52.968066 179.774724 0.000000 -0.000000 0.000000 -0.170346 6.232885 -8.618975 -5.469860 -20.287948 31.374816 0.000000 -0.000000 0.000000 0.690984 -10.114049 -15.422417 -8.099023 -9.855004 27.274850 
12.330219 1.282655 -5.196988 -179.124619 47.738482 173.239710 0.000000 -0.000000 0.000000 1.134409 3.051499 10.286382 0.419817 0.485333 1.963763 0.000000 0.000000 0.000000 0.452826 0.274514 1.293720 -0.523772 -1.405448 1.055717 0.373145 0.355433 2.193962 -12.393116 3.032235 0.779325 -62.021277 2.073395 16.240836 -0.255034 -26.379499 0.657875 0.322540 0.618178 1.877202 14.710730 14.279440 3.570570 43.241834 42.009713 -17.028210 179.204511 53.086022 179.770815 0.000000 -0.000000 0.000000 0.697270 6.657332 -9.712079 -5.393354 -19.885000 32.919270 0.000000 -0.000000 0.000000 0.947223 -10.396610 -14.987134 -8.072196 -9.845835 26.955678 
12.409128 1.382804 -5.630350 -178.833208 47.398176 173.393824 0.000000 -0.000000 0.000000 1.301578 2.872854 10.334679 0.483709 0.444913 2.009794 0.000000 0.000000 0.000000 0.501500 0.249903 1.328636 -0.447470 -1.369064 1.229678 0.427823 0.289809 2.235664 -12.315865 3.029153 0.771114 -62.315378 2.239936 16.042584 -0.254243 -26.470360 0.662822 0.370514 0.537122 1.901166 14.661632 14.292317 3.551300 43.416037 41.820187 -16.807256 179.202456 53.196991 179.764706 0.000000 -0.000000 0.000000 1.606481 7.042553 -10.818287 -5.281917 -19.475056 34.017485 0.000000 -0.000000 0.000000 1.137925 -10.677023 -14.592939 -8.058799 -9.839928 26.649834 
12.468183 1.494731 -6.104334 -178.654663 47.171218 173.461975 0.000000 -0.000000 0.000000 1.414325 2.727722 10.372329 0.536436 0.413027 2.058605 0.000000 0.000000 0.000000 0.540204 0.232019 1.364140 -0.383006 -1.332582 1.364702 0.474360 0.238782 2.274460 -12.262978 3.023898 0.765781 -62.543456 2.396301 15.864740 -0.253199 -26.544041 0.667670 0.410289 0.475375 1.925500 14.651471 14.300466 3.539093 43.548594 41.679546 -16.626543 179.204084 53.266729 179.759634 0.000000 -0.000000 0.000000 2.404204 7.358416 -11.873957 -5.199718 -19.069931 34.850071 0.000000 -0.000000 0.000000 1.248360 -10.950917 -14.234353 -8.061182 -9.837532 26.371901 
12.522101 1.608222 -6.605354 -178.586236 46.927254 173.447098 0.000000 -0.000000 0.000000 1.459276 2.597275 10.421309 0.579350 0.388130 2.104553 0.000000 0.000000 0.000000 0.570819 0.218976 1.399533 -0.332096 -1.288944 1.474883 0.504975 0.204293 2.311971 -12.222979 3.014639 0.763570 -62.708744 2.535251 15.695752 -0.252949 -26.577058 0.670270 0.441250 0.429675 1.950269 14.657662 14.303338 3.528665 43.641164 41.606262 -16.514815 179.206355 53.303092 179.754595 0.000000 -0.000000 0.000000 3.094661 7.694768 -12.841385 -5.050649 -18.537274 35.318769 0.000000 -0.000000 0.000000 1.273079 -11.207115 -13.919987 -8.078535 -9.837753 26.121451 
12.570775 1.719055 -7.136754 -178.597158 46.633373 173.372335 0.000000 -0.000000 0.000000 1.430580 2.459799 10.500062 0.611834 0.368451 2.146453 0.000000 0.000000 0.000000 0.593723 0.209869 1.431810 -0.285889 -1.247659 1.572855 0.527584 0.195923 2.335535 -12.191687 3.003802 0.763866 -62.840082 2.682282 15.535987 -0.252027 -26.588727 0.670704 0.464181 0.395093 1.973636 14.674042 14.294149 3.518724 43.710115 41.581455 -16.450184 179.209518 53.292581 179.747143 0.000000 -0.000000 -0.000000 3.660780 8.053682 -13.743213 -4.777171 -17.815879 35.473226 0.000000 -0.000000 0.000000 1.214013 -11.445844 -13.642964 -8.106408 -9.839973 25.894479 
12.615913 1.834146 -7.689012 -178.662450 46.307880 173.258823 0.000000 -0.000000 0.000000 1.343318 2.321048 10.596434 0.634224 0.350910 2.184666 0.000000 0.000000 0.000000 0.609525 0.202735 1.460915 -0.240155 -1.208133 1.663267 0.544961 0.189239 2.355313 -12.161654 2.989616 0.764131 -62.926177 2.814038 15.373382 -0.251223 -26.572539 0.670273 0.480967 0.366726 1.994662 14.699498 14.273295 3.509205 43.766924 41.580360 -16.398634 179.213882 53.268020 179.738390 0.000000 -0.000000 -0.000000 3.905696 8.368200 -14.778002 -4.388794 -17.033648 35.207275 0.000000 -0.000000 0.000000 1.078927 -11.668487 -13.387351 -8.147996 -9.859206 25.688968 
12.660424 1.952417 -8.261972 -178.771291 45.867866 173.118995 0.000000 -0.000000 0.000000 1.206014 2.190387 10.698737 0.646989 0.334003 2.216670 0.000000 0.000000 0.000000 0.617849 0.196281 1.483974 -0.198920 -1.167974 1.745621 0.556607 0.183300 2.369876 -12.135101 2.974636 0.764330 -62.992080 2.933046 15.187104 -0.248628 -26.527012 0.668076 0.492285 0.342304 2.010534 14.744252 14.227923 3.499600 43.812106 41.606674 -16.357062 179.219822 53.228683 179.728724 0.000000 -0.000000 -0.000000 3.824183 8.661194 -15.541260 -3.823717 -16.243214 34.363283 0.000000 -0.000000 0.000000 0.880434 -11.874312 -13.091176 -8.203068 -9.893874 25.495125 
12.707058 2.073523 -8.858765 -178.909150 45.385184 172.978971 0.000000 -0.000000 0.000000 1.017940 2.068990 10.793027 0.649669 0.317838 2.241680 0.000000 0.000000 0.000000 0.619981 0.190561 1.503035 -0.165927 -1.128470 1.820912 0.563110 0.178157 2.377973 -12.112704 2.968694 0.763662 -63.032902 3.025009 14.983379 -0.245226 -26.443760 0.664080 0.498753 0.320182 2.020146 14.797676 14.159021 3.486829 43.837155 41.668803 -16.340296 179.228275 53.175721 179.718776 0.000000 -0.000000 -0.000000 3.413460 8.934745 -15.981636 -2.921007 -15.190388 32.912777 0.000000 -0.000000 0.000000 0.622745 -12.107263 -12.771300 -8.255210 -9.945585 25.278618 
12.755194 2.197472 -9.483373 -179.044123 44.830138 172.875796 0.000000 -0.000000 0.000000 0.785039 1.962575 10.874920 0.644164 0.303338 2.260802 0.000000 0.000000 0.000000 0.615548 0.186282 1.519014 -0.139179 -1.089861 1.892108 0.564143 0.174471 2.382319 -12.093067 2.960382 0.764906 -63.064518 3.104944 14.739731 -0.242137 -26.306278 0.659348 0.500120 0.302547 2.025049 14.855978 14.064647 3.472934 43.837955 41.752788 -16.364042 179.235406 53.132892 179.704780 0.000000 -0.000000 -0.000000 2.678596 9.208776 -16.097232 -1.696164 -13.536839 30.793333 0.000000 -0.000000 0.000000 0.323381 -12.368514 -12.450223 -8.290980 -9.997791 25.059690 
12.793584 2.324332 -10.137805 -179.166679 44.294490 172.819038 0.000000 -0.000000 0.000000 0.504868 1.869986 10.944282 0.628363 0.291614 2.274671 0.000000 0.000000 0.000000 0.603043 0.183692 1.532854 -0.116454 -1.054752 1.964111 0.559105 0.172442 2.381759 -12.078524 2.950759 0.766561 -63.102894 3.154694 14.462371 -0.237296 -26.087806 0.652500 0.496863 0.288928 2.025918 14.913792 13.959395 3.458829 43.814153 41.841014 -16.391474 179.244288 53.076275 179.688547 0.000000 -0.000000 -0.000000 1.650963 9.608278 -15.817645 -0.696357 -11.993748 27.757934 0.000000 -0.000000 0.000000 -0.012292 -12.663392 -12.138712 -8.318583 -10.055143 24.852083 
